<?xml version="1.0" encoding="UTF-8"?>
<svg width="114px" height="48px" viewBox="0 0 114 48" version="1.1" xmlns="http://www.w3.org/2000/svg" xmlns:xlink="http://www.w3.org/1999/xlink">
    <title>classifyr</title>
    <defs>
        <filter id="filter-1">
            <feColorMatrix in="SourceGraphic" type="matrix" values="0 0 0 0 0.964706 0 0 0 0 0.780392 0 0 0 0 0.039216 0 0 0 1.000000 0"></feColorMatrix>
        </filter>
    </defs>
    <g id="Page-1" stroke="none" stroke-width="1" fill="none" fill-rule="evenodd">
        <g id="classifyr" transform="translate(0.970703, 0.642578)">
            <path d="M6.98632812,40.8769531 C9.38346354,40.8769531 11.1927083,40.0247396 12.4140625,38.3203125 C13.1796875,37.2630208 13.6080729,36.1419271 13.6992188,34.9570312 L13.6992188,34.9570312 L9.72070312,34.9570312 C9.63867188,35.7408854 9.40625,36.3789062 9.0234375,36.8710938 C8.640625,37.3632812 7.99348958,37.609375 7.08203125,37.609375 C5.796875,37.609375 4.921875,36.9895833 4.45703125,35.75 C4.20182292,35.0846354 4.07421875,34.2050781 4.07421875,33.1113281 C4.07421875,31.9628906 4.20182292,31.0423177 4.45703125,30.3496094 C4.94010417,29.046224 5.83789062,28.3945312 7.15039062,28.3945312 C8.07096354,28.3945312 8.75,28.6953125 9.1875,29.296875 C9.48828125,29.7434896 9.67513021,30.2447917 9.74804688,30.8007812 L9.74804688,30.8007812 L13.7402344,30.8007812 C13.5214844,28.6770833 12.8173828,27.1959635 11.6279297,26.3574219 C10.4384766,25.5188802 8.90950521,25.0996094 7.04101562,25.0996094 C4.84440104,25.0996094 3.12174479,25.8105469 1.87304688,27.2324219 C0.624348958,28.6542969 0,30.6458333 0,33.2070312 C0,35.4765625 0.565104167,37.3222656 1.6953125,38.7441406 C2.82552083,40.1660156 4.58919271,40.8769531 6.98632812,40.8769531 Z M20.5019531,40.3574219 L20.5019531,12.3574219 L16.5019531,12.3574219 L16.5019531,40.3574219 L20.5019531,40.3574219 Z M27.8496094,40.8222656 C28.906901,40.8222656 29.8548177,40.5807292 30.6933594,40.0976562 C31.3951823,39.6875 32.014974,39.1907552 32.5527344,38.6074219 C32.5800781,38.9446615 32.6165365,39.2454427 32.6621094,39.5097656 C32.7076823,39.7740885 32.7897135,40.0566406 32.9082031,40.3574219 L32.9082031,40.3574219 L37.1464844,40.3574219 L37.1464844,39.7832031 C36.891276,39.6647135 36.6998698,39.5143229 36.5722656,39.3320312 C36.4446615,39.1497396 36.3671875,38.8033854 36.3398438,38.2929688 C36.3216146,37.6184896 36.3125,37.0442708 36.3125,36.5703125 L36.3125,29.734375 C36.3125,27.9388021 35.6790365,26.7174479 34.4121094,26.0703125 C33.1451823,25.4231771 31.6959635,25.0996094 30.0644531,25.0996094 C27.5579427,25.0996094 25.7897135,25.7558594 24.7597656,27.0683594 C24.1126302,27.906901 23.7480469,28.9778646 23.6660156,30.28125 L23.6660156,30.28125 L27.4257812,30.28125 C27.5169271,29.7070312 27.6992188,29.2513021 27.9726562,28.9140625 C28.3554688,28.4583333 29.0071615,28.2304688 29.9277344,28.2304688 C30.7480469,28.2304688 31.3701172,28.3466797 31.7939453,28.5791016 C32.2177734,28.8115234 32.4296875,29.2330729 32.4296875,29.84375 C32.4296875,30.3450521 32.1516927,30.7141927 31.5957031,30.9511719 C31.2858073,31.0878906 30.7708333,31.2018229 30.0507812,31.2929688 L30.0507812,31.2929688 L28.7246094,31.4570312 C27.2207031,31.6484375 26.0813802,31.9674479 25.3066406,32.4140625 C23.8938802,33.234375 23.1875,34.5605469 23.1875,36.3925781 C23.1875,37.8053385 23.6272786,38.8968099 24.5068359,39.6669922 C25.3863932,40.4371745 26.500651,40.8222656 27.8496094,40.8222656 Z M28.9980469,37.9921875 C28.469401,37.9921875 28.0205078,37.8440755 27.6513672,37.5478516 C27.2822266,37.2516276 27.0976562,36.7708333 27.0976562,36.1054688 C27.0976562,35.3580729 27.3984375,34.8066406 28,34.4511719 C28.3554688,34.2415365 28.9433594,34.0638021 29.7636719,33.9179688 L29.7636719,33.9179688 L30.6386719,33.7539062 C31.0761719,33.671875 31.4202474,33.5830078 31.6708984,33.4873047 C31.9215495,33.3916016 32.1699219,33.266276 32.4160156,33.1113281 L32.4160156,33.1113281 L32.4160156,34.5605469 C32.3886719,35.8639323 32.0218099,36.7617188 31.3154297,37.2539062 C30.6090495,37.7460938 29.8365885,37.9921875 28.9980469,37.9921875 Z M45.71875,40.8632812 C48.015625,40.8632812 49.7132161,40.3961589 50.8115234,39.4619141 C51.9098307,38.5276693 52.4589844,37.3222656 52.4589844,35.8457031 C52.4589844,34.7246094 52.0761719,33.7903646 51.3105469,33.0429688 C50.5358073,32.3046875 49.3736979,31.7532552 47.8242188,31.3886719 C45.5,30.8782552 44.1464844,30.5182292 43.7636719,30.3085938 C43.3808594,30.1080729 43.1894531,29.7845052 43.1894531,29.3378906 C43.1894531,28.9824219 43.3694661,28.672526 43.7294922,28.4082031 C44.0895182,28.1438802 44.6933594,28.0117188 45.5410156,28.0117188 C46.5709635,28.0117188 47.3001302,28.2760417 47.7285156,28.8046875 C47.9563802,29.0963542 48.0976562,29.4928385 48.1523438,29.9941406 L48.1523438,29.9941406 L52.0488281,29.9941406 C51.875651,28.171224 51.2034505,26.8883464 50.0322266,26.1455078 C48.8610026,25.4026693 47.3457031,25.03125 45.4863281,25.03125 C43.5266927,25.03125 42.0068359,25.5257161 40.9267578,26.5146484 C39.8466797,27.5035807 39.3066406,28.6861979 39.3066406,30.0625 C39.3066406,31.2291667 39.6529948,32.1223958 40.3457031,32.7421875 C41.0384115,33.3710938 42.2278646,33.8951823 43.9140625,34.3144531 C46.2565104,34.8704427 47.610026,35.2623698 47.9746094,35.4902344 C48.3391927,35.718099 48.5214844,36.0507812 48.5214844,36.4882812 C48.5214844,36.9440104 48.2958984,37.2858073 47.8447266,37.5136719 C47.3935547,37.7415365 46.7851562,37.8554688 46.0195312,37.8554688 C44.7161458,37.8554688 43.8229167,37.5957031 43.3398438,37.0761719 C43.0664062,36.7845052 42.8886719,36.2923177 42.8066406,35.5996094 L42.8066406,35.5996094 L38.8554688,35.5996094 C38.8554688,37.1308594 39.413737,38.3909505 40.5302734,39.3798828 C41.6468099,40.3688151 43.3763021,40.8632812 45.71875,40.8632812 Z M61.2910156,40.8632812 C63.5878906,40.8632812 65.2854818,40.3961589 66.3837891,39.4619141 C67.4820964,38.5276693 68.03125,37.3222656 68.03125,35.8457031 C68.03125,34.7246094 67.6484375,33.7903646 66.8828125,33.0429688 C66.1080729,32.3046875 64.9459635,31.7532552 63.3964844,31.3886719 C61.0722656,30.8782552 59.71875,30.5182292 59.3359375,30.3085938 C58.953125,30.1080729 58.7617188,29.7845052 58.7617188,29.3378906 C58.7617188,28.9824219 58.9417318,28.672526 59.3017578,28.4082031 C59.6617839,28.1438802 60.265625,28.0117188 61.1132812,28.0117188 C62.1432292,28.0117188 62.8723958,28.2760417 63.3007812,28.8046875 C63.5286458,29.0963542 63.6699219,29.4928385 63.7246094,29.9941406 L63.7246094,29.9941406 L67.6210938,29.9941406 C67.4479167,28.171224 66.7757161,26.8883464 65.6044922,26.1455078 C64.4332682,25.4026693 62.9179688,25.03125 61.0585938,25.03125 C59.0989583,25.03125 57.5791016,25.5257161 56.4990234,26.5146484 C55.4189453,27.5035807 54.8789062,28.6861979 54.8789062,30.0625 C54.8789062,31.2291667 55.2252604,32.1223958 55.9179688,32.7421875 C56.6106771,33.3710938 57.8001302,33.8951823 59.4863281,34.3144531 C61.828776,34.8704427 63.1822917,35.2623698 63.546875,35.4902344 C63.9114583,35.718099 64.09375,36.0507812 64.09375,36.4882812 C64.09375,36.9440104 63.8681641,37.2858073 63.4169922,37.5136719 C62.9658203,37.7415365 62.3574219,37.8554688 61.5917969,37.8554688 C60.2884115,37.8554688 59.3951823,37.5957031 58.9121094,37.0761719 C58.6386719,36.7845052 58.4609375,36.2923177 58.3789062,35.5996094 L58.3789062,35.5996094 L54.4277344,35.5996094 C54.4277344,37.1308594 54.9860026,38.3909505 56.1025391,39.3798828 C57.2190755,40.3688151 58.9485677,40.8632812 61.2910156,40.8632812 Z" id="class" fill="#D8D8D8" fill-rule="nonzero"></path>
            <path d="M74.921875,40.3574219 L74.921875,25.4550781 L70.9707031,25.4550781 L70.9707031,40.3574219 L74.921875,40.3574219 Z M90.0292969,46.3574219 L90.0292969,43.3574219 L17.0292969,43.3574219 L17.0292969,46.3574219 L90.0292969,46.3574219 Z M83.2207031,40.3574219 L83.2207031,28.3398438 L85.7773438,28.3398438 L85.7773438,25.5917969 L83.2207031,25.5917969 L83.2207031,25.5917969 L83.2207031,24.3339844 C83.2207031,24.0423177 83.3186849,23.7757161 83.5146484,23.5341797 C83.710612,23.2926432 84.0660807,23.1787109 84.5810547,23.1923828 C85.0960286,23.2060547 85.4628906,23.2265625 85.6816406,23.2539062 L85.6816406,23.2539062 L85.6816406,20.0820312 C85.3352865,20.0546875 85.061849,20.0341797 84.8613281,20.0205078 C84.6608073,20.0068359 84.4375,20 84.1914062,20 C82.03125,20 80.6686198,20.4466146 80.1035156,21.3398438 C79.5657552,21.9414062 79.296875,23.0397135 79.296875,24.6347656 L79.296875,24.6347656 L79.296875,25.5917969 L77.1640625,25.5917969 L77.1640625,28.3398438 L79.3378906,28.3398438 L79.3378906,40.3574219 L83.2207031,40.3574219 Z M90.3984375,46.3867188 C92.1210938,46.3867188 93.2695312,46.0472005 93.84375,45.3681641 C94.4179688,44.6891276 95.1972656,42.936849 96.1816406,40.1113281 L96.1816406,40.1113281 L101.294922,25.4550781 L97.1523438,25.4550781 L94.0761719,36.4472656 L90.8222656,25.4550781 L86.4882812,25.4550781 L91.9570312,41.0136719 C91.9934896,41.1230469 91.913737,41.4238281 91.7177734,41.9160156 C91.5218099,42.4082031 91.3098958,42.7317708 91.0820312,42.8867188 C90.8450521,43.0507812 90.5533854,43.155599 90.2070312,43.2011719 C89.8606771,43.2467448 89.4960938,43.2604167 89.1132812,43.2421875 L89.1132812,43.2421875 L88.6210938,43.2148438 L88.6210938,46.3320312 C89.0403646,46.359375 89.3548177,46.3753255 89.5644531,46.3798828 C89.7740885,46.3844401 90.0520833,46.3867188 90.3984375,46.3867188 Z M107.474609,40.3574219 L107.474609,33.234375 C107.474609,32.0403646 107.625,31.15625 107.925781,30.5820312 C108.463542,29.5611979 109.516276,29.0507812 111.083984,29.0507812 C111.202474,29.0507812 111.357422,29.0553385 111.548828,29.0644531 C111.740234,29.0735677 111.958984,29.0917969 112.205078,29.1191406 L112.205078,29.1191406 L112.205078,25.1269531 C112.031901,25.1178385 111.920247,25.1110026 111.870117,25.1064453 C111.819987,25.101888 111.758464,25.0996094 111.685547,25.0996094 C110.51888,25.0996094 109.570964,25.4049479 108.841797,26.015625 C108.395182,26.3802083 107.871094,27.0592448 107.269531,28.0527344 L107.269531,28.0527344 L107.269531,25.4550781 L103.550781,25.4550781 L103.550781,40.3574219 L107.474609,40.3574219 Z" id="ifyr" fill="#F6C70A" fill-rule="nonzero"></path>
            <g filter="url(#filter-1)" id="flame-svgrepo-com">
                <g transform="translate(72.529297, 10.357422) scale(-1, 1) translate(-72.529297, -10.357422) translate(66.029297, 0.357422)">
                    <path d="M3.44218642,19.9737105 C3.64533948,20.0775667 3.8596391,19.8526648 3.73525968,19.666521 C3.0601445,18.6560963 2.42084788,16.9558352 3.43939978,14.7661297 C5.13796047,11.1145943 6.17153306,9.2233528 6.17153306,9.2233528 C6.17153306,9.2233528 6.72128329,11.4304113 8.21152545,13.3927966 C9.64579687,15.2814564 10.4308485,17.6567828 9.16523693,19.6355733 C9.04646478,19.8212922 9.25590477,20.0404098 9.45773247,19.9410961 C11.0243694,19.1704426 12.7815176,17.6245932 12.979777,14.5483846 C13.0528754,13.6083848 12.9432448,12.2923719 12.3950578,10.6316859 C11.6902071,8.52691501 10.8236972,7.54479099 10.3223393,7.12302636 C10.1723704,6.99684991 9.93914199,7.10867995 9.951444,7.29992175 C10.0975388,9.57096713 9.20907558,10.1472742 8.70336789,8.84848359 C8.50140426,8.3297255 8.38361763,7.43247075 8.38361763,6.33979119 C8.38361763,4.52067385 7.83478495,2.64805978 6.62480428,1.12636069 C6.31015154,0.730641803 5.94197487,0.360870622 5.51956061,0.0455438777 C5.36663509,-0.0686391098 5.14496106,0.0461321128 5.15896224,0.231818356 C5.25187299,1.46502077 5.16769599,4.99930122 1.94331247,9.22165346 C-0.980249566,13.1383522 0.152622653,16.1463582 0.554612858,16.9610639 C1.32318251,18.5218153 2.39522436,19.4383838 3.44218642,19.9737105 Z" id="Path" fill="#000000" fill-rule="nonzero"></path>
                </g>
            </g>
        </g>
    </g>
</svg>