<?xml version="1.0" encoding="UTF-8"?>
<svg width="150px" height="41px" viewBox="0 0 150 41" version="1.1" xmlns="http://www.w3.org/2000/svg" xmlns:xlink="http://www.w3.org/1999/xlink">
    <title>database-svgrepo-com (1)</title>
    <defs>
        <filter id="filter-1">
            <feColorMatrix in="SourceGraphic" type="matrix" values="0 0 0 0 0.511148 0 0 0 0 0.963917 0 0 0 0 0.039671 0 0 0 1.000000 0"></feColorMatrix>
        </filter>
    </defs>
    <g id="Page-1" stroke="none" stroke-width="1" fill="none" fill-rule="evenodd">
        <g filter="url(#filter-1)" id="database-svgrepo-com-(1)">
            <g>
                <path d="M38.7335254,28.8913559 C38.6588136,28.6549831 38.454,28.4830169 38.2092542,28.4482373 L33.200339,27.7468475 L30.9641356,23.3800678 C30.7438644,22.9498305 30.0379661,22.9498305 29.818339,23.3800678 L27.5821356,27.7468475 L22.5732203,28.4482373 C22.3278305,28.4830169 22.123661,28.654339 22.0489492,28.8913559 C21.9742373,29.1283729 22.0412203,29.386 22.2222034,29.5553898 L25.8322034,32.9476949 L24.9807458,37.7311864 C24.9382373,37.9714237 25.0348475,38.2148814 25.2306441,38.3610847 C25.4270847,38.5072881 25.6892203,38.5304746 25.9062712,38.4184068 L30.3922034,36.1461356 L34.8774915,38.4184068 C34.9695932,38.4654237 35.0694237,38.4879661 35.1686102,38.4879661 C35.3045085,38.4879661 35.4397627,38.4454576 35.5531186,38.3610847 C35.7489153,38.2155254 35.8455254,37.9720678 35.8030169,37.7311864 L34.9522034,32.9476949 L38.5622034,29.5553898 C38.7406102,29.386 38.8082373,29.1277288 38.7335254,28.8913559 Z M33.8141356,32.2475932 C33.6556949,32.3963729 33.5829153,32.6153559 33.6209153,32.8291864 L34.3062034,36.6852203 L30.6813898,34.848339 C30.4978305,34.7549492 30.2827119,34.7549492 30.0991525,34.848339 L26.4736949,36.6852203 L27.1596271,32.8291864 C27.1982712,32.6153559 27.1248475,32.3963729 26.9664068,32.2475932 L24.0816271,29.538 L28.0909492,28.9763729 C28.298339,28.9473898 28.479322,28.8192203 28.5746441,28.6324407 L30.3896271,25.0874915 L32.2046102,28.6324407 C32.2999322,28.8192203 32.4809153,28.9473898 32.6883051,28.9763729 L36.6976271,29.538 L33.8141356,32.2475932 Z" id="Shape" fill="#000000" fill-rule="nonzero"></path>
                <path d="M18.0157966,20.2994915 C18.2257627,20.3052881 18.4350847,20.3110847 18.6482712,20.3143051 C18.9419661,20.3194576 19.2388814,20.3220339 19.5383729,20.3220339 C19.8378644,20.3220339 20.1347797,20.3194576 20.4291186,20.3149492 C20.641661,20.3117288 20.8516271,20.3052881 21.0615932,20.3001356 C21.1363051,20.2982034 21.2123051,20.2969153 21.2863729,20.2949831 C28.5340678,20.0637627 33.9410169,18.4175254 35.6400678,16.6444068 L35.6400678,15.8135593 L35.6400678,15.4915254 L35.6400678,15.1694915 L35.6400678,10.5895254 C32.5053898,12.7426441 25.8785763,13.8813559 19.5383729,13.8813559 C13.1981695,13.8813559 6.57135593,12.7426441 3.43667797,10.5895254 L3.43667797,15.1694915 L3.43667797,15.4915254 L3.43667797,15.8135593 L3.43667797,16.6437627 C5.13572881,18.4175254 10.542678,20.0637627 17.7903729,20.294339 C17.8650847,20.2962712 17.9410847,20.2975593 18.0157966,20.2994915 Z" id="Path" fill="#FF0000" fill-rule="nonzero"></path>
                <path d="M35.6400678,8.28183051 L35.6400678,7.11864407 L35.6400678,6.79661017 C35.6400678,6.68840678 35.604,6.59115254 35.5531186,6.50162712 C34.8304746,3.73149153 29.2734576,1 19.5383729,1 C9.82776271,1 4.27654237,3.7179661 3.53071186,6.48101695 C3.47661017,6.57569492 3.43667797,6.67938983 3.43667797,6.79661017 L3.43667797,7.11864407 L3.43667797,8.28183051 C5.26325424,10.1889153 11.3690169,11.9491525 19.5383729,11.9491525 C27.7077288,11.9491525 33.8134915,10.1889153 35.6400678,8.28183051 Z" id="Path" fill="#410E0E" fill-rule="nonzero"></path>
                <path d="M19.5383729,30.7565763 C11.5867119,30.7565763 6.09925424,29.281661 3.43667797,27.4067797 L3.43667797,32.6887797 C3.43667797,32.7931186 3.46437288,32.891661 3.5120339,32.9792542 C4.27267797,36.1319661 11.0778983,38.4853898 19.5383729,38.4853898 C20.6970508,38.4853898 21.8209492,38.4370847 22.9068475,38.3527119 L23.7460678,33.6394237 L20.6635593,30.7430508 C20.2919322,30.7501356 19.9209492,30.7565763 19.5383729,30.7565763 Z" id="Path" fill="#410E0E" fill-rule="nonzero"></path>
                <path d="M17.9578305,28.2015593 C17.7774915,28.0315254 17.7098644,27.7738983 17.7845763,27.5375254 C17.8592881,27.3011525 18.0641017,27.1291864 18.3088475,27.0944068 L26.3191186,25.9730847 L28.5830169,21.5522034 C26.4749831,21.9541017 24.0191525,22.222678 21.2168136,22.299322 C20.6564746,22.3167119 20.0961356,22.3257288 19.5383729,22.3257288 C18.978678,22.3257288 18.4164068,22.3167119 17.8547797,22.298678 C13.126678,22.1692203 9.35888136,21.501322 6.6460678,20.5487458 C5.37145763,20.1191525 4.27976271,19.6129153 3.43667797,19.0338983 L3.43667797,23.6138644 L3.43667797,23.9358983 L3.43667797,24.2579322 L3.43667797,25.0881356 C5.19369492,26.9224407 10.922678,28.6156949 18.5445763,28.7528814 L17.9578305,28.2015593 Z" id="Path" fill="#FF0000" fill-rule="nonzero"></path>
                <g id="database-svgrepo-com"></g>
            </g>
        </g>
    </g>
</svg>