<?xml version="1.0" encoding="UTF-8"?>
<svg width="164px" height="69px" viewBox="0 0 164 69" version="1.1" xmlns="http://www.w3.org/2000/svg" xmlns:xlink="http://www.w3.org/1999/xlink">
    <title>classifyr</title>
    <defs>
        <filter id="filter-1">
            <feColorMatrix in="SourceGraphic" type="matrix" values="0 0 0 0 0.964706 0 0 0 0 0.780392 0 0 0 0 0.039216 0 0 0 1.000000 0"></feColorMatrix>
        </filter>
    </defs>
    <g id="Page-1" stroke="none" stroke-width="1" fill="none" fill-rule="evenodd">
        <g id="classifyr" transform="translate(0.970703, 0.642578)">
            <path d="M10.0932036,59.3574219 C13.5463119,59.3574219 16.1525552,58.125456 17.9119335,55.6615242 C19.0148274,54.1330959 19.6319228,52.5124349 19.7632197,50.7995411 L19.7632197,50.7995411 L14.0321104,50.7995411 C13.9139432,51.9326862 13.5791361,52.8550136 13.0276892,53.5665234 C12.4762422,54.2780331 11.5440343,54.6337879 10.2310654,54.6337879 C8.37977919,54.6337879 7.11932903,53.7378127 6.44971488,51.9458623 C6.08208358,50.9840066 5.89826794,49.7125124 5.89826794,48.1313797 C5.89826794,46.4711904 6.08208358,45.1404037 6.44971488,44.1390196 C7.14558841,42.2548365 8.43886279,41.3127449 10.329538,41.3127449 C11.6556366,41.3127449 12.6337985,41.7475564 13.2640236,42.6171794 C13.6973033,43.2628086 13.9664619,43.9874944 14.0714994,44.7912369 L14.0714994,44.7912369 L19.8223033,44.7912369 C19.5071908,41.7212042 18.4929223,39.580087 16.7794978,38.3678853 C15.0660734,37.1556835 12.863568,36.5495826 10.1719818,36.5495826 C7.00772667,36.5495826 4.52621542,37.5773189 2.727448,39.6327914 C0.928680583,41.6882639 0.029296875,44.5672431 0.029296875,48.2697288 C0.029296875,51.5505792 0.843337604,54.2187406 2.47141906,56.2742131 C4.09950052,58.3296856 6.64009537,59.3574219 10.0932036,59.3574219 Z M29.562657,58.6063838 L29.562657,25.3574219 L23.8005991,25.3574219 L23.8005991,58.6063838 L29.562657,58.6063838 Z M40.1470621,59.2783652 C41.6701061,59.2783652 43.0355938,58.9291984 44.2435252,58.2308648 C45.2545112,57.6379401 46.1473301,56.9198423 46.9219818,56.0765715 C46.9613708,56.5640874 47.0138896,56.9988989 47.079538,57.381006 C47.1451865,57.7631131 47.2633537,58.1715723 47.4340396,58.6063838 L47.4340396,58.6063838 L53.5393451,58.6063838 L53.5393451,57.7762892 C53.1717138,57.6049998 52.8959903,57.3875941 52.7121747,57.1240719 C52.528359,56.8605498 52.4167567,56.3598578 52.3773676,55.6219959 C52.3511082,54.646964 52.3379785,53.8168694 52.3379785,53.1317119 L52.3379785,43.2496325 C52.3379785,40.6539396 51.4254651,38.8883414 49.6004384,37.9528379 C47.7754116,37.0173344 45.687791,36.5495826 43.3375766,36.5495826 C39.7269121,36.5495826 37.1797524,37.4982623 35.6960975,39.3956215 C34.7638896,40.6078232 34.238702,42.1560157 34.1205348,44.0401988 L34.1205348,44.0401988 L39.5365316,44.0401988 C39.6678285,43.2101042 39.9304223,42.5512989 40.324313,42.0637829 C40.8757599,41.4049777 41.8145327,41.075575 43.1406313,41.075575 C44.3223033,41.075575 45.2184046,41.2435704 45.8289351,41.5795611 C46.4394657,41.9155518 46.744731,42.5249466 46.744731,43.4077457 C46.744731,44.1324316 46.3442754,44.6660639 45.5433644,45.0086426 C45.096955,45.2062842 44.3551275,45.3709855 43.3178821,45.5027466 L43.3178821,45.5027466 L41.4075123,45.7399165 C39.2411136,46.0166147 37.5999024,46.4777784 36.4838789,47.1234076 C34.448777,48.3092571 33.4312261,50.2263805 33.4312261,52.8747778 C33.4312261,54.9170742 34.0647336,56.4949129 35.3317486,57.6082938 C36.5987636,58.7216748 38.2038682,59.2783652 40.1470621,59.2783652 Z M41.801403,55.1871844 C41.039881,55.1871844 40.3932438,54.9730727 39.8614914,54.5448492 C39.329739,54.1166258 39.0638628,53.4215862 39.0638628,52.4597305 C39.0638628,51.3792898 39.4971425,50.5821354 40.363702,50.0682672 C40.8757599,49.7652168 41.7226248,49.5082828 42.9042969,49.2974651 L42.9042969,49.2974651 L44.164747,49.0602952 C44.7949721,48.9417102 45.2906179,48.8132432 45.6516843,48.6748941 C46.0127508,48.5365449 46.3705348,48.3553735 46.7250364,48.1313797 L46.7250364,48.1313797 L46.7250364,50.2263805 C46.6856474,52.1105637 46.1571774,53.4084101 45.1396265,54.1199198 C44.1220755,54.8314295 43.0093344,55.1871844 41.801403,55.1871844 Z M65.8878178,59.3376577 C69.1964994,59.3376577 71.6419041,58.6623823 73.2240316,57.3118314 C74.8061591,55.9612806 75.5972229,54.2187406 75.5972229,52.0842114 C75.5972229,50.4635504 75.045776,49.1129996 73.9428821,48.0325589 C72.8268585,46.9652943 71.1528231,46.1681399 68.920776,45.6410957 C65.5727052,44.9032338 63.6229464,44.3827776 63.0714994,44.0797271 C62.5200525,43.7898528 62.244329,43.3221011 62.244329,42.6764719 C62.244329,42.1626037 62.5036404,41.7146161 63.0222631,41.3325091 C63.5408858,40.950402 64.4107277,40.7593485 65.6317888,40.7593485 C67.1154437,40.7593485 68.1658188,41.1414555 68.7829142,41.9056697 C69.1111565,42.3273051 69.3146666,42.9004657 69.3934448,43.6251515 L69.3934448,43.6251515 L75.0063869,43.6251515 C74.7569228,40.9899303 73.7886082,39.1353934 72.1014432,38.0615408 C70.4142781,36.9876882 68.2314673,36.4507619 65.5530107,36.4507619 C62.7301275,36.4507619 60.5407519,37.1655656 58.9848837,38.5951731 C57.4290155,40.0247806 56.6510814,41.7343803 56.6510814,43.7239723 C56.6510814,45.4105138 57.1500096,46.7017722 58.147866,47.5977474 C59.1457224,48.5068987 60.8591468,49.2645248 63.2881393,49.8706257 C66.6624694,50.6743681 68.6122283,51.2409407 69.1374158,51.5703433 C69.6626034,51.899746 69.9251972,52.3806738 69.9251972,53.0131269 C69.9251972,53.6719322 69.6002374,54.1660362 68.9503178,54.4954388 C68.3003982,54.8248415 67.4239914,54.9895428 66.3210975,54.9895428 C64.443552,54.9895428 63.1568424,54.6140238 62.4609689,53.8629857 C62.0670782,53.4413503 61.8110493,52.7298406 61.6928821,51.7284566 L61.6928821,51.7284566 L56.0011618,51.7284566 C56.0011618,53.9420424 56.8053553,55.763639 58.4137422,57.1932465 C60.0221291,58.622854 62.5134877,59.3376577 65.8878178,59.3376577 Z M88.3198917,59.3376577 C91.6285734,59.3376577 94.073978,58.6623823 95.6561056,57.3118314 C97.2382331,55.9612806 98.0292969,54.2187406 98.0292969,52.0842114 C98.0292969,50.4635504 97.4778499,49.1129996 96.374956,48.0325589 C95.2589325,46.9652943 93.5848971,46.1681399 91.3528499,45.6410957 C88.0047792,44.9032338 86.0550203,44.3827776 85.5035734,44.0797271 C84.9521265,43.7898528 84.676403,43.3221011 84.676403,42.6764719 C84.676403,42.1626037 84.9357143,41.7146161 85.4543371,41.3325091 C85.9729598,40.950402 86.8428017,40.7593485 88.0638628,40.7593485 C89.5475177,40.7593485 90.5978928,41.1414555 91.2149882,41.9056697 C91.5432304,42.3273051 91.7467406,42.9004657 91.8255187,43.6251515 L91.8255187,43.6251515 L97.4384609,43.6251515 C97.1889968,40.9899303 96.2206822,39.1353934 94.5335171,38.0615408 C92.8463521,36.9876882 90.6635412,36.4507619 87.9850847,36.4507619 C85.1622015,36.4507619 82.9728258,37.1655656 81.4169576,38.5951731 C79.8610895,40.0247806 79.0831554,41.7343803 79.0831554,43.7239723 C79.0831554,45.4105138 79.5820836,46.7017722 80.57994,47.5977474 C81.5777963,48.5068987 83.2912208,49.2645248 85.7202133,49.8706257 C89.0945434,50.6743681 91.0443022,51.2409407 91.5694898,51.5703433 C92.0946774,51.899746 92.3572712,52.3806738 92.3572712,53.0131269 C92.3572712,53.6719322 92.0323113,54.1660362 91.3823917,54.4954388 C90.7324721,54.8248415 89.8560654,54.9895428 88.7531715,54.9895428 C86.8756259,54.9895428 85.5889164,54.6140238 84.8930429,53.8629857 C84.4991522,53.4413503 84.2431232,52.7298406 84.124956,51.7284566 L84.124956,51.7284566 L78.4332358,51.7284566 C78.4332358,53.9420424 79.2374292,55.763639 80.8458162,57.1932465 C82.4542031,58.622854 84.9455616,59.3376577 88.3198917,59.3376577 Z" id="class" fill="#D8D8D8" fill-rule="nonzero"></path>
            <path d="M108.682811,58.6745203 L108.682811,37.2133804 L103.029297,37.2133804 L103.029297,58.6745203 L108.682811,58.6745203 Z M120.557148,58.6745203 L120.557148,41.3677846 L124.215305,41.3677846 L124.215305,37.4102716 L120.557148,37.4102716 L120.557148,37.4102716 L120.557148,35.5988727 C120.557148,35.1788381 120.697345,34.7949003 120.977739,34.4470592 C121.258132,34.0992181 121.766753,33.9351421 122.503601,33.9548312 C123.240449,33.9745203 123.765371,34.004054 124.078368,34.0434322 L124.078368,34.0434322 L124.078368,29.4755566 C123.582789,29.4361784 123.191543,29.4066447 122.904628,29.3869556 C122.617714,29.3672664 122.298196,29.3574219 121.946074,29.3574219 C118.855225,29.3574219 116.905513,30.0005998 116.096936,31.2869556 C115.327484,32.1532768 114.942758,33.7349694 114.942758,36.0320333 L114.942758,36.0320333 L114.942758,37.4102716 L111.891034,37.4102716 L111.891034,41.3677846 L115.001445,41.3677846 L115.001445,58.6745203 L120.557148,58.6745203 Z M130.827374,67.3574219 C133.292228,67.3574219 134.935464,66.8684754 135.757082,65.8905825 C136.5787,64.9126896 137.693753,62.3892008 139.102241,58.3201162 L139.102241,58.3201162 L146.418554,37.2133804 L140.491167,37.2133804 L136.089642,53.0434322 L131.433806,37.2133804 L125.232546,37.2133804 L133.05748,59.619598 C133.109646,59.777111 132.995533,60.2102716 132.715139,60.9190799 C132.434746,61.6278882 132.131529,62.093864 131.805491,62.3170074 C131.46641,62.5532768 131.04908,62.7042267 130.553501,62.7698571 C130.057922,62.8354875 129.53626,62.8551766 128.988514,62.8289245 L128.988514,62.8289245 L128.28427,62.7895462 L128.28427,67.2786654 C128.884182,67.3180436 129.334116,67.3410143 129.634071,67.3475773 C129.934027,67.3541404 130.331795,67.3574219 130.827374,67.3574219 Z M155.260729,58.6745203 L155.260729,48.4164892 C155.260729,46.6969728 155.475915,45.4237431 155.906286,44.5968001 C156.675738,43.1266792 158.182038,42.3916188 160.425185,42.3916188 C160.594726,42.3916188 160.816432,42.3981818 161.090305,42.4113079 C161.364178,42.424434 161.677175,42.4506861 162.029297,42.4900644 L162.029297,42.4900644 L162.029297,36.7408416 C161.781507,36.7277155 161.621748,36.7178709 161.55002,36.7113079 C161.478291,36.7047448 161.390261,36.7014633 161.285928,36.7014633 C159.616609,36.7014633 158.260287,37.141187 157.216963,38.0206343 C156.577926,38.5456775 155.828037,39.5235704 154.967294,40.9543131 L154.967294,40.9543131 L154.967294,37.2133804 L149.646339,37.2133804 L149.646339,58.6745203 L155.260729,58.6745203 Z" id="ifyr" fill="#F6C70A" fill-rule="nonzero"></path>
            <g filter="url(#filter-1)" id="flame-svgrepo-com">
                <g transform="translate(104.529297, 14.857422) scale(-1, 1) translate(-104.529297, -14.857422) translate(95.029297, 0.357422)">
                    <path d="M5.03088785,28.9618802 C5.32780385,29.1124717 5.64101099,28.7863639 5.45922568,28.5164554 C4.47251889,27.0513397 3.53816229,24.585961 5.02681506,21.410888 C7.50932685,16.1161618 9.01993293,13.3738616 9.01993293,13.3738616 C9.01993293,13.3738616 9.82341404,16.5740963 12.0014603,19.419555 C14.0977031,22.1581117 15.2450863,25.602335 13.3953463,28.4715813 C13.2217562,28.7408737 13.5278608,29.0585942 13.8228398,28.9145894 C16.1125399,27.7971418 18.6806795,25.5556602 18.9704433,21.0951577 C19.0772794,19.7321579 18.9170501,17.8239393 18.1158537,15.4159446 C17.0856873,12.3640268 15.8192497,10.9399469 15.086496,10.3283882 C14.8673106,10.1454324 14.5264383,10.3075859 14.5444182,10.5848865 C14.7579414,13.8779023 13.4594182,14.7135476 12.7203069,12.8303012 C12.4251293,12.078102 12.2529796,10.7770826 12.2529796,9.19269723 C12.2529796,6.55497708 11.4508395,3.83968669 9.68240626,1.633223 C9.22252917,1.05943061 8.6844248,0.523262403 8.06705012,0.0660386226 C7.8435436,-0.0995267093 7.51955848,0.0668915636 7.54002174,0.336136617 C7.67581437,2.12428011 7.55278645,7.24898677 2.84022592,13.3713975 C-1.43267244,19.0506106 0.223063877,23.4122194 0.810588023,24.5935427 C1.93388214,26.8566322 3.50071253,28.1856565 5.03088785,28.9618802 Z" id="Path" fill="#000000" fill-rule="nonzero"></path>
                </g>
            </g>
        </g>
    </g>
</svg>