<?xml version="1.0" encoding="UTF-8"?>
<svg width="156px" height="41px" viewBox="0 0 156 41" version="1.1" xmlns="http://www.w3.org/2000/svg" xmlns:xlink="http://www.w3.org/1999/xlink">
    <title>database-svgrepo-com (1)</title>
    <defs>
        <filter id="filter-1">
            <feColorMatrix in="SourceGraphic" type="matrix" values="0 0 0 0 1.000000 0 0 0 0 1.000000 0 0 0 0 1.000000 0 0 0 1.000000 0"></feColorMatrix>
        </filter>
    </defs>
    <g id="Page-1" stroke="none" stroke-width="1" fill="none" fill-rule="evenodd">
        <g filter="url(#filter-1)" id="database-svgrepo-com-(1)">
            <g>
                <path d="M38.7335254,28.8913559 C38.6588136,28.6549831 38.454,28.4830169 38.2092542,28.4482373 L33.200339,27.7468475 L30.9641356,23.3800678 C30.7438644,22.9498305 30.0379661,22.9498305 29.818339,23.3800678 L27.5821356,27.7468475 L22.5732203,28.4482373 C22.3278305,28.4830169 22.123661,28.654339 22.0489492,28.8913559 C21.9742373,29.1283729 22.0412203,29.386 22.2222034,29.5553898 L25.8322034,32.9476949 L24.9807458,37.7311864 C24.9382373,37.9714237 25.0348475,38.2148814 25.2306441,38.3610847 C25.4270847,38.5072881 25.6892203,38.5304746 25.9062712,38.4184068 L30.3922034,36.1461356 L34.8774915,38.4184068 C34.9695932,38.4654237 35.0694237,38.4879661 35.1686102,38.4879661 C35.3045085,38.4879661 35.4397627,38.4454576 35.5531186,38.3610847 C35.7489153,38.2155254 35.8455254,37.9720678 35.8030169,37.7311864 L34.9522034,32.9476949 L38.5622034,29.5553898 C38.7406102,29.386 38.8082373,29.1277288 38.7335254,28.8913559 Z M33.8141356,32.2475932 C33.6556949,32.3963729 33.5829153,32.6153559 33.6209153,32.8291864 L34.3062034,36.6852203 L30.6813898,34.848339 C30.4978305,34.7549492 30.2827119,34.7549492 30.0991525,34.848339 L26.4736949,36.6852203 L27.1596271,32.8291864 C27.1982712,32.6153559 27.1248475,32.3963729 26.9664068,32.2475932 L24.0816271,29.538 L28.0909492,28.9763729 C28.298339,28.9473898 28.479322,28.8192203 28.5746441,28.6324407 L30.3896271,25.0874915 L32.2046102,28.6324407 C32.2999322,28.8192203 32.4809153,28.9473898 32.6883051,28.9763729 L36.6976271,29.538 L33.8141356,32.2475932 Z" id="Shape" fill="#000000" fill-rule="nonzero"></path>
                <path d="M18.0157966,20.2994915 C18.2257627,20.3052881 18.4350847,20.3110847 18.6482712,20.3143051 C18.9419661,20.3194576 19.2388814,20.3220339 19.5383729,20.3220339 C19.8378644,20.3220339 20.1347797,20.3194576 20.4291186,20.3149492 C20.641661,20.3117288 20.8516271,20.3052881 21.0615932,20.3001356 C21.1363051,20.2982034 21.2123051,20.2969153 21.2863729,20.2949831 C28.5340678,20.0637627 33.9410169,18.4175254 35.6400678,16.6444068 L35.6400678,15.8135593 L35.6400678,15.4915254 L35.6400678,15.1694915 L35.6400678,10.5895254 C32.5053898,12.7426441 25.8785763,13.8813559 19.5383729,13.8813559 C13.1981695,13.8813559 6.57135593,12.7426441 3.43667797,10.5895254 L3.43667797,15.1694915 L3.43667797,15.4915254 L3.43667797,15.8135593 L3.43667797,16.6437627 C5.13572881,18.4175254 10.542678,20.0637627 17.7903729,20.294339 C17.8650847,20.2962712 17.9410847,20.2975593 18.0157966,20.2994915 Z" id="Path" fill="#000000" fill-rule="nonzero"></path>
                <path d="M35.6400678,8.28183051 L35.6400678,7.11864407 L35.6400678,6.79661017 C35.6400678,6.68840678 35.604,6.59115254 35.5531186,6.50162712 C34.8304746,3.73149153 29.2734576,1 19.5383729,1 C9.82776271,1 4.27654237,3.7179661 3.53071186,6.48101695 C3.47661017,6.57569492 3.43667797,6.67938983 3.43667797,6.79661017 L3.43667797,7.11864407 L3.43667797,8.28183051 C5.26325424,10.1889153 11.3690169,11.9491525 19.5383729,11.9491525 C27.7077288,11.9491525 33.8134915,10.1889153 35.6400678,8.28183051 Z" id="Path" fill="#000000" fill-rule="nonzero"></path>
                <path d="M19.5383729,30.7565763 C11.5867119,30.7565763 6.09925424,29.281661 3.43667797,27.4067797 L3.43667797,32.6887797 C3.43667797,32.7931186 3.46437288,32.891661 3.5120339,32.9792542 C4.27267797,36.1319661 11.0778983,38.4853898 19.5383729,38.4853898 C20.6970508,38.4853898 21.8209492,38.4370847 22.9068475,38.3527119 L23.7460678,33.6394237 L20.6635593,30.7430508 C20.2919322,30.7501356 19.9209492,30.7565763 19.5383729,30.7565763 Z" id="Path" fill="#000000" fill-rule="nonzero"></path>
                <path d="M17.9578305,28.2015593 C17.7774915,28.0315254 17.7098644,27.7738983 17.7845763,27.5375254 C17.8592881,27.3011525 18.0641017,27.1291864 18.3088475,27.0944068 L26.3191186,25.9730847 L28.5830169,21.5522034 C26.4749831,21.9541017 24.0191525,22.222678 21.2168136,22.299322 C20.6564746,22.3167119 20.0961356,22.3257288 19.5383729,22.3257288 C18.978678,22.3257288 18.4164068,22.3167119 17.8547797,22.298678 C13.126678,22.1692203 9.35888136,21.501322 6.6460678,20.5487458 C5.37145763,20.1191525 4.27976271,19.6129153 3.43667797,19.0338983 L3.43667797,23.6138644 L3.43667797,23.9358983 L3.43667797,24.2579322 L3.43667797,25.0881356 C5.19369492,26.9224407 10.922678,28.6156949 18.5445763,28.7528814 L17.9578305,28.2015593 Z" id="Path" fill="#000000" fill-rule="nonzero"></path>
                <g id="database-svgrepo-com" fill="#FFFFFF" fill-rule="nonzero">
                    <path d="M56.6099502,33 C58.8779436,33 60.5897181,32.1897747 61.7452736,30.5693241 C62.4696517,29.5641248 62.8749585,28.4982669 62.961194,27.3717504 L62.961194,27.3717504 L59.1970149,27.3717504 C59.119403,28.1169844 58.8995025,28.7235702 58.5373134,29.1915078 C58.1751244,29.6594454 57.5628524,29.8934142 56.7004975,29.8934142 C55.4845771,29.8934142 54.6567164,29.3041594 54.2169154,28.1256499 C53.9754561,27.4930676 53.8547264,26.6568458 53.8547264,25.6169844 C53.8547264,24.52513 53.9754561,23.6499133 54.2169154,22.9913345 C54.6739635,21.7521664 55.5233831,21.1325823 56.7651741,21.1325823 C57.6361526,21.1325823 58.278607,21.4185442 58.6925373,21.9904679 C58.9771144,22.415078 59.1538972,22.8916811 59.2228856,23.4202773 L59.2228856,23.4202773 L63,23.4202773 C62.7930348,21.4012132 62.1268657,19.9930676 61.0014925,19.1958406 C59.8761194,18.3986135 58.4295191,18 56.6616915,18 C54.5834163,18 52.9535655,18.6759099 51.7721393,20.0277296 C50.5907131,21.3795494 50,23.2729636 50,25.7079723 C50,27.8656846 50.53466,29.6204506 51.6039801,30.9722704 C52.6733002,32.3240901 54.3419569,33 56.6099502,33 Z M69,32 L69,13 L65,13 L65,32 L69,32 Z M76.3418217,33 C77.3264773,33 78.209272,32.7695652 78.9902057,32.3086957 C79.6438133,31.9173913 80.2210251,31.4434783 80.7218413,30.8869565 C80.7473066,31.2086957 80.7812602,31.4956522 80.8237023,31.7478261 C80.8661443,32 80.94254,32.2695652 81.0528893,32.5565217 L81.0528893,32.5565217 L85,32.5565217 L85,32.0086957 C84.7623245,31.8956522 84.5840679,31.7521739 84.4652302,31.5782609 C84.3463924,31.4043478 84.2742409,31.073913 84.2487757,30.5869565 C84.2317989,29.9434783 84.2233105,29.3956522 84.2233105,28.9434783 L84.2233105,22.4217391 C84.2233105,20.7086957 83.633366,19.5434783 82.453477,18.926087 C81.273588,18.3086957 79.9239308,18 78.4045054,18 C76.0701926,18 74.4234411,18.626087 73.4642507,19.8782609 C72.8615736,20.6782609 72.5220372,21.7 72.4456415,22.9434783 L72.4456415,22.9434783 L75.9471107,22.9434783 C76.0319948,22.3956522 76.201763,21.9608696 76.4564153,21.6391304 C76.8129285,21.2043478 77.4198498,20.9869565 78.2771792,20.9869565 C79.0411361,20.9869565 79.6204701,21.0978261 80.0151812,21.3195652 C80.4098923,21.5413043 80.6072478,21.9434783 80.6072478,22.526087 C80.6072478,23.0043478 80.3483513,23.3565217 79.8305583,23.5826087 C79.5419523,23.7130435 79.0623572,23.8217391 78.3917728,23.9086957 L78.3917728,23.9086957 L77.1567091,24.0652174 C75.7561214,24.2478261 74.6950702,24.5521739 73.9735553,24.9782609 C72.6578518,25.7608696 72,27.026087 72,28.773913 C72,30.1217391 72.4095658,31.1630435 73.2286974,31.8978261 C74.0478289,32.6326087 75.0855371,33 76.3418217,33 Z M77.7866324,30 C77.2896315,30 76.8676093,29.8482726 76.5205656,29.5448179 C76.1735219,29.2413632 76,28.7488329 76,28.0672269 C76,27.3015873 76.2827763,26.7366947 76.848329,26.372549 C77.1825193,26.1577965 77.7352185,25.9757236 78.5064267,25.8263305 L78.5064267,25.8263305 L79.3290488,25.6582633 C79.7403599,25.5742297 80.0638389,25.4831933 80.2994859,25.3851541 C80.5351328,25.2871148 80.7686375,25.1587302 81,25 L81,25 L81,26.4845938 C80.9742931,27.8197946 80.6293916,28.7394958 79.9652956,29.2436975 C79.3011997,29.7478992 78.5749786,30 77.7866324,30 Z M93.558794,33 C95.7537688,33 97.3760469,32.5574266 98.4256281,31.6722798 C99.4752094,30.787133 100,29.6450777 100,28.246114 C100,27.1839378 99.6341709,26.298791 98.9025126,25.5906736 C98.1621441,24.8911917 97.0515913,24.3687392 95.5708543,24.0233161 C93.3497487,23.5397237 92.0562814,23.1986183 91.6904523,23 C91.3246231,22.8100173 91.1417085,22.5034542 91.1417085,22.0803109 C91.1417085,21.7435233 91.3137353,21.4499136 91.6577889,21.1994819 C92.0018425,20.9490501 92.5788945,20.8238342 93.3889447,20.8238342 C94.3731993,20.8238342 95.0700168,21.074266 95.479397,21.5751295 C95.6971524,21.851468 95.8321608,22.2271157 95.8844221,22.7020725 L95.8844221,22.7020725 L99.6080402,22.7020725 C99.4425461,20.9749568 98.8001675,19.7594991 97.6809045,19.0556995 C96.5616415,18.3518998 95.1135678,18 93.3366834,18 C91.4639866,18 90.0115578,18.4684801 88.979397,19.4054404 C87.9472362,20.3424007 87.4311558,21.462867 87.4311558,22.7668394 C87.4311558,23.8721934 87.7621441,24.7184801 88.4241206,25.3056995 C89.0860972,25.9015544 90.2227806,26.3981002 91.8341709,26.7953368 C94.0726968,27.3221071 95.3661642,27.693437 95.7145729,27.9093264 C96.0629816,28.1252159 96.2371859,28.4404145 96.2371859,28.8549223 C96.2371859,29.2867012 96.021608,29.6105354 95.5904523,29.8264249 C95.1592965,30.0423143 94.5778894,30.1502591 93.8462312,30.1502591 C92.60067,30.1502591 91.7470687,29.9041451 91.2854271,29.4119171 C91.0241206,29.1355786 90.8542714,28.6692573 90.7758794,28.0129534 L90.7758794,28.0129534 L87,28.0129534 C87,29.4637306 87.5335008,30.6575993 88.6005025,31.5945596 C89.6675042,32.5315199 91.320268,33 93.558794,33 Z M107.558794,33 C109.753769,33 111.376047,32.5574266 112.425628,31.6722798 C113.475209,30.787133 114,29.6450777 114,28.246114 C114,27.1839378 113.634171,26.298791 112.902513,25.5906736 C112.162144,24.8911917 111.051591,24.3687392 109.570854,24.0233161 C107.349749,23.5397237 106.056281,23.1986183 105.690452,23 C105.324623,22.8100173 105.141709,22.5034542 105.141709,22.0803109 C105.141709,21.7435233 105.313735,21.4499136 105.657789,21.1994819 C106.001843,20.9490501 106.578894,20.8238342 107.388945,20.8238342 C108.373199,20.8238342 109.070017,21.074266 109.479397,21.5751295 C109.697152,21.851468 109.832161,22.2271157 109.884422,22.7020725 L109.884422,22.7020725 L113.60804,22.7020725 C113.442546,20.9749568 112.800168,19.7594991 111.680905,19.0556995 C110.561642,18.3518998 109.113568,18 107.336683,18 C105.463987,18 104.011558,18.4684801 102.979397,19.4054404 C101.947236,20.3424007 101.431156,21.462867 101.431156,22.7668394 C101.431156,23.8721934 101.762144,24.7184801 102.424121,25.3056995 C103.086097,25.9015544 104.222781,26.3981002 105.834171,26.7953368 C108.072697,27.3221071 109.366164,27.693437 109.714573,27.9093264 C110.062982,28.1252159 110.237186,28.4404145 110.237186,28.8549223 C110.237186,29.2867012 110.021608,29.6105354 109.590452,29.8264249 C109.159296,30.0423143 108.577889,30.1502591 107.846231,30.1502591 C106.60067,30.1502591 105.747069,29.9041451 105.285427,29.4119171 C105.024121,29.1355786 104.854271,28.6692573 104.775879,28.0129534 L104.775879,28.0129534 L101,28.0129534 C101,29.4637306 101.533501,30.6575993 102.600503,31.5945596 C103.667504,32.5315199 105.320268,33 107.558794,33 Z M121,16 L121,13 L117,13 L117,16 L121,16 Z M121,32 L121,18 L117,18 L117,32 L121,32 Z M128.625397,32 L128.625397,20.7837475 L131,20.7837475 L131,18.2189389 L128.625397,18.2189389 L128.625397,18.2189389 L128.625397,17.0449966 C128.625397,16.7727782 128.716402,16.5239534 128.898413,16.2985225 C129.080423,16.0730916 129.410582,15.9667562 129.888889,15.9795165 C130.367196,15.9922767 130.707937,16.0114171 130.911111,16.0369375 L130.911111,16.0369375 L130.911111,13.0765615 C130.589418,13.051041 130.33545,13.0319006 130.149206,13.0191404 C129.962963,13.0063801 129.755556,13 129.526984,13 C127.520635,13 126.255026,13.4168346 125.730159,14.2505037 C125.230688,14.8119543 124.980952,15.8370271 124.980952,17.325722 L124.980952,17.325722 L124.980952,18.2189389 L123,18.2189389 L123,20.7837475 L125.019048,20.7837475 L125.019048,32 L128.625397,32 Z M135.697138,38 C137.325946,38 138.411819,37.6755933 138.954755,37.0267799 C139.497692,36.3779665 140.234534,34.7036795 141.165282,32.003919 L141.165282,32.003919 L146,18 L142.083102,18 L139.174515,28.5029393 L136.097876,18 L132,18 L137.170822,32.8661006 C137.205294,32.9706074 137.129886,33.2580013 136.944598,33.7282822 C136.759311,34.198563 136.558941,34.5077292 136.34349,34.6557805 C136.119421,34.8125408 135.843644,34.9126932 135.516159,34.9562378 C135.188673,34.9997823 134.843952,35.0128456 134.481994,34.9954278 L134.481994,34.9954278 L134.01662,34.9693011 L134.01662,37.9477466 C134.41305,37.9738733 134.710372,37.9891139 134.908587,37.9934683 C135.027516,37.996081 135.169714,37.9979099 135.33518,37.9989549 L135.697138,38 Z M151.627172,32 L151.627172,25.4641577 C151.627172,24.3685783 151.766193,23.5573477 152.044234,23.0304659 C152.541338,22.0937873 153.514481,21.625448 154.963665,21.625448 C155.073196,21.625448 155.21643,21.6296296 155.393365,21.6379928 C155.5703,21.646356 155.772512,21.6630824 156,21.688172 L156,21.688172 L156,18.0250896 C155.839916,18.0167264 155.736704,18.010454 155.690363,18.0062724 C155.644023,18.0020908 155.587151,18 155.519747,18 C154.441285,18 153.565034,18.2801673 152.890995,18.8405018 C152.478146,19.1750299 151.993681,19.7980884 151.437599,20.7096774 L151.437599,20.7096774 L151.437599,18.3261649 L148,18.3261649 L148,32 L151.627172,32 Z" id="classifyr"></path>
                </g>
            </g>
        </g>
    </g>
</svg>