<?xml version="1.0" encoding="UTF-8"?>
<svg width="36px" height="38px" viewBox="0 0 36 38" version="1.1" xmlns="http://www.w3.org/2000/svg" xmlns:xlink="http://www.w3.org/1999/xlink">
    <title>database-svgrepo-com</title>
    <g id="Page-1" stroke="none" stroke-width="1" fill="none" fill-rule="evenodd">
        <g id="database-svgrepo-com" fill="#FFFFFF" fill-rule="nonzero">
            <path d="M35.7335254,27.8913559 C35.6588136,27.6549831 35.454,27.4830169 35.2092542,27.4482373 L30.200339,26.7468475 L27.9641356,22.3800678 C27.7438644,21.9498305 27.0379661,21.9498305 26.818339,22.3800678 L24.5821356,26.7468475 L19.5732203,27.4482373 C19.3278305,27.4830169 19.123661,27.654339 19.0489492,27.8913559 C18.9742373,28.1283729 19.0412203,28.386 19.2222034,28.5553898 L22.8322034,31.9476949 L21.9807458,36.7311864 C21.9382373,36.9714237 22.0348475,37.2148814 22.2306441,37.3610847 C22.4270847,37.5072881 22.6892203,37.5304746 22.9062712,37.4184068 L27.3922034,35.1461356 L31.8774915,37.4184068 C31.9695932,37.4654237 32.0694237,37.4879661 32.1686102,37.4879661 C32.3045085,37.4879661 32.4397627,37.4454576 32.5531186,37.3610847 C32.7489153,37.2155254 32.8455254,36.9720678 32.8030169,36.7311864 L31.9522034,31.9476949 L35.5622034,28.5553898 C35.7406102,28.386 35.8082373,28.1277288 35.7335254,27.8913559 Z M30.8141356,31.2475932 C30.6556949,31.3963729 30.5829153,31.6153559 30.6209153,31.8291864 L31.3062034,35.6852203 L27.6813898,33.848339 C27.4978305,33.7549492 27.2827119,33.7549492 27.0991525,33.848339 L23.4736949,35.6852203 L24.1596271,31.8291864 C24.1982712,31.6153559 24.1248475,31.3963729 23.9664068,31.2475932 L21.0816271,28.538 L25.0909492,27.9763729 C25.298339,27.9473898 25.479322,27.8192203 25.5746441,27.6324407 L27.3896271,24.0874915 L29.2046102,27.6324407 C29.2999322,27.8192203 29.4809153,27.9473898 29.6883051,27.9763729 L33.6976271,28.538 L30.8141356,31.2475932 Z" id="Shape"></path>
            <path d="M15.0157966,19.2994915 C15.2257627,19.3052881 15.4350847,19.3110847 15.6482712,19.3143051 C15.9419661,19.3194576 16.2388814,19.3220339 16.5383729,19.3220339 C16.8378644,19.3220339 17.1347797,19.3194576 17.4291186,19.3149492 C17.641661,19.3117288 17.8516271,19.3052881 18.0615932,19.3001356 C18.1363051,19.2982034 18.2123051,19.2969153 18.2863729,19.2949831 C25.5340678,19.0637627 30.9410169,17.4175254 32.6400678,15.6444068 L32.6400678,14.8135593 L32.6400678,14.4915254 L32.6400678,14.1694915 L32.6400678,9.58952542 C29.5053898,11.7426441 22.8785763,12.8813559 16.5383729,12.8813559 C10.1981695,12.8813559 3.57135593,11.7426441 0.436677966,9.58952542 L0.436677966,14.1694915 L0.436677966,14.4915254 L0.436677966,14.8135593 L0.436677966,15.6437627 C2.13572881,17.4175254 7.54267797,19.0637627 14.7903729,19.294339 C14.8650847,19.2962712 14.9410847,19.2975593 15.0157966,19.2994915 Z" id="Path"></path>
            <path d="M32.6400678,7.28183051 L32.6400678,6.11864407 L32.6400678,5.79661017 C32.6400678,5.68840678 32.604,5.59115254 32.5531186,5.50162712 C31.8304746,2.73149153 26.2734576,0 16.5383729,0 C6.82776271,0 1.27654237,2.7179661 0.530711864,5.48101695 C0.476610169,5.57569492 0.436677966,5.67938983 0.436677966,5.79661017 L0.436677966,6.11864407 L0.436677966,7.28183051 C2.26325424,9.18891525 8.36901695,10.9491525 16.5383729,10.9491525 C24.7077288,10.9491525 30.8134915,9.18891525 32.6400678,7.28183051 Z" id="Path"></path>
            <path d="M16.5383729,29.7565763 C8.58671186,29.7565763 3.09925424,28.281661 0.436677966,26.4067797 L0.436677966,31.6887797 C0.436677966,31.7931186 0.464372881,31.891661 0.512033898,31.9792542 C1.27267797,35.1319661 8.07789831,37.4853898 16.5383729,37.4853898 C17.6970508,37.4853898 18.8209492,37.4370847 19.9068475,37.3527119 L20.7460678,32.6394237 L17.6635593,29.7430508 C17.2919322,29.7501356 16.9209492,29.7565763 16.5383729,29.7565763 Z" id="Path"></path>
            <path d="M14.9578305,27.2015593 C14.7774915,27.0315254 14.7098644,26.7738983 14.7845763,26.5375254 C14.8592881,26.3011525 15.0641017,26.1291864 15.3088475,26.0944068 L23.3191186,24.9730847 L25.5830169,20.5522034 C23.4749831,20.9541017 21.0191525,21.222678 18.2168136,21.299322 C17.6564746,21.3167119 17.0961356,21.3257288 16.5383729,21.3257288 C15.978678,21.3257288 15.4164068,21.3167119 14.8547797,21.298678 C10.126678,21.1692203 6.35888136,20.501322 3.6460678,19.5487458 C2.37145763,19.1191525 1.27976271,18.6129153 0.436677966,18.0338983 L0.436677966,22.6138644 L0.436677966,22.9358983 L0.436677966,23.2579322 L0.436677966,24.0881356 C2.19369492,25.9224407 7.92267797,27.6156949 15.5445763,27.7528814 L14.9578305,27.2015593 Z" id="Path"></path>
        </g>
    </g>
</svg>